<?xml version="1.0" standalone="no"?>
<!DOCTYPE svg PUBLIC "-//W3C//DTD SVG 20010904//EN"
 "http://www.w3.org/TR/2001/REC-SVG-20010904/DTD/svg10.dtd">
<svg version="1.0" xmlns="http://www.w3.org/2000/svg"
 width="584.000000pt" height="490.000000pt" viewBox="0 0 584.000000 490.000000"
 preserveAspectRatio="xMidYMid meet">
<metadata>
Created by potrace 1.14, written by Peter Selinger 2001-2017
</metadata>
<g transform="translate(0.000000,490.000000) scale(0.100000,-0.100000)"
fill="#000000" stroke="none">
<path d="M2465 4855 c-348 -67 -494 -118 -648 -224 -40 -28 -103 -64 -142 -82
-66 -30 -80 -32 -225 -39 -140 -6 -161 -9 -211 -33 -103 -50 -207 -165 -250
-276 l-17 -46 -103 -28 c-138 -37 -263 -104 -355 -190 -90 -84 -139 -157 -182
-270 -37 -98 -52 -219 -72 -557 -12 -210 -28 -302 -72 -410 -26 -62 -44 -88
-110 -153 -43 -43 -78 -83 -78 -89 0 -7 30 -41 66 -76 71 -69 117 -152 148
-267 9 -33 32 -222 51 -420 26 -272 39 -376 55 -425 86 -256 267 -419 557
-500 l93 -26 49 -100 c95 -195 139 -218 499 -254 122 -12 206 -46 317 -130
130 -98 296 -159 570 -209 344 -63 778 -59 1127 10 144 29 337 107 443 179 53
36 126 73 222 111 61 24 108 34 213 45 168 17 183 21 247 50 64 31 112 83 158
174 20 39 51 88 70 109 33 37 38 38 112 44 97 7 174 34 252 86 76 52 111 95
166 206 57 116 88 237 131 515 81 529 124 672 243 802 l50 55 -50 54 c-64 69
-90 113 -127 219 -38 110 -46 163 -82 532 -16 169 -35 329 -41 355 -6 26 -30
89 -54 139 -91 194 -272 331 -527 394 l-85 22 -18 50 c-25 69 -87 159 -140
202 -95 79 -219 117 -382 118 -96 1 -99 2 -153 38 -128 87 -396 201 -584 251
-61 15 -176 40 -256 54 -132 23 -168 25 -425 24 -274 -1 -284 -1 -450 -34z
m895 -185 c329 -55 600 -164 758 -301 32 -28 36 -29 145 -29 118 0 223 -17
279 -45 94 -48 148 -139 148 -250 l0 -52 123 -6 c135 -6 191 -21 272 -72 128
-81 213 -240 259 -485 9 -47 34 -206 56 -355 52 -347 89 -479 168 -594 l30
-44 -36 -46 c-82 -107 -119 -235 -166 -576 -51 -367 -63 -431 -100 -537 -60
-175 -156 -282 -296 -330 -51 -17 -89 -22 -180 -23 l-115 0 -12 -45 c-6 -25
-12 -68 -12 -96 -1 -41 -8 -62 -33 -100 -51 -75 -94 -92 -268 -104 -80 -6
-161 -16 -180 -22 -77 -24 -205 -81 -273 -122 -158 -96 -293 -149 -462 -185
-421 -87 -834 -78 -1200 25 -186 53 -397 152 -520 244 l-50 37 -140 5 c-179 7
-256 32 -327 106 -51 53 -65 92 -75 194 l-6 68 -71 -6 c-208 -18 -374 61 -465
220 -68 119 -95 229 -146 585 -61 426 -87 524 -171 647 l-44 64 35 53 c82 120
118 256 175 657 46 324 75 453 127 558 89 181 226 266 449 279 l101 6 6 52
c12 118 93 223 206 266 44 18 84 23 190 27 l133 4 77 55 c163 117 403 211 662
259 204 37 284 43 569 39 202 -3 281 -8 380 -25z"/>
<path d="M2655 4633 c-242 -30 -474 -86 -592 -143 -45 -22 -117 -67 -161 -100
-44 -33 -111 -74 -148 -91 -65 -29 -78 -31 -239 -38 -246 -11 -264 -24 -276
-196 -11 -151 0 -140 -127 -141 -173 -2 -275 -45 -397 -168 -94 -93 -163 -251
-186 -424 -11 -84 -7 -321 6 -342 4 -6 196 -10 549 -10 l542 0 18 56 c24 76
77 127 201 193 134 72 154 87 175 135 30 69 61 86 209 112 84 15 199 57 307
113 123 64 324 91 529 72 164 -16 310 -61 435 -133 48 -27 65 -31 130 -33 94
-1 125 -18 197 -108 37 -46 75 -79 130 -113 170 -104 212 -135 241 -179 16
-25 33 -61 36 -80 l7 -35 534 0 533 0 8 67 c13 124 -2 338 -30 434 -40 136
-83 216 -152 284 -109 108 -226 154 -402 158 l-99 2 -6 97 c-3 53 -12 112 -20
131 -34 79 -131 115 -336 121 l-139 4 -73 52 c-98 69 -288 160 -424 205 -127
41 -327 82 -465 95 -90 9 -451 11 -515 3z m-72 -525 c-6 -49 -5 -51 15 -46 14
4 22 2 22 -7 0 -7 -11 -16 -24 -19 -21 -5 -24 -14 -35 -94 -17 -131 -15 -139
22 -133 14 2 7 -27 -12 -50 -24 -30 -87 -32 -107 -4 -14 19 -15 19 -37 -7 -12
-14 -32 -31 -44 -37 -32 -16 -84 -13 -104 5 -16 14 -18 14 -29 -6 -24 -46
-118 -78 -146 -50 -7 7 -24 -3 -53 -30 -33 -31 -50 -40 -77 -40 -50 0 -73 15
-95 63 -56 124 24 277 146 277 19 0 35 4 35 8 0 10 97 42 104 34 3 -3 6 -56 6
-117 0 -89 3 -115 15 -125 13 -11 20 -9 40 10 24 22 25 29 25 141 0 130 -5
121 72 135 l37 6 3 -123 c2 -80 7 -124 14 -126 7 -2 24 7 39 20 25 21 28 32
36 118 6 81 5 95 -8 103 -15 8 -15 10 -1 20 9 7 20 32 25 56 8 42 11 45 53 56
71 19 70 20 63 -38z m523 -53 c20 -22 21 -22 43 -4 29 24 107 25 139 3 29 -20
28 -51 -4 -147 -28 -85 -24 -104 19 -93 19 4 29 18 41 54 19 57 66 116 109
138 40 21 120 21 152 0 14 -9 30 -14 35 -11 8 5 98 -12 108 -21 2 -1 -21 -44
-50 -96 -70 -120 -72 -125 -48 -138 34 -18 63 7 125 110 33 55 65 98 71 96 7
-3 30 -10 53 -17 23 -7 41 -16 41 -21 0 -5 -29 -52 -65 -105 -49 -73 -62 -100
-53 -110 15 -18 44 -16 65 5 10 9 34 25 53 35 20 10 64 43 98 73 l62 56 53
-18 c28 -9 53 -18 55 -19 2 -2 -17 -55 -42 -119 -39 -103 -42 -116 -25 -111
11 4 40 26 65 51 83 80 195 86 271 12 35 -34 45 -82 21 -106 -9 -9 -4 -15 22
-26 33 -13 36 -13 68 14 l34 28 44 -31 c25 -17 42 -37 40 -43 -3 -8 7 -15 25
-19 17 -4 46 -20 65 -37 61 -54 45 -94 -68 -171 -52 -35 -56 -42 -32 -69 16
-16 15 -18 -6 -26 -13 -5 -34 -7 -47 -4 -26 5 -73 55 -73 79 0 16 55 75 118
126 43 35 40 61 -8 65 -30 2 -46 -6 -120 -68 -46 -38 -88 -70 -92 -70 -5 0
-27 12 -49 27 l-41 27 71 64 c39 35 71 67 71 72 0 4 -12 11 -26 14 -20 5 -33
0 -61 -24 -19 -17 -46 -36 -60 -41 -31 -12 -105 -12 -136 0 -40 15 -87 70 -87
101 l0 28 -84 -5 c-78 -5 -88 -4 -129 20 -25 15 -47 33 -50 41 -4 10 -21 14
-61 13 -64 -1 -104 17 -113 50 -4 18 -10 22 -22 17 -59 -26 -125 -15 -149 25
-16 26 -19 28 -37 15 -10 -8 -41 -14 -68 -14 -40 0 -54 5 -75 28 l-27 27 -35
-18 c-62 -31 -140 -3 -140 52 0 14 10 58 21 98 22 74 21 103 -6 103 -30 0 -55
-41 -86 -145 l-32 -105 -49 0 c-32 0 -48 4 -48 13 0 6 12 60 27 119 22 85 25
110 15 120 -9 9 -18 8 -39 -9 -24 -17 -32 -37 -54 -129 l-25 -109 -52 -3 c-29
-2 -52 -1 -52 1 0 2 14 71 30 152 17 81 30 150 30 152 0 1 27 3 61 3 37 0 58
-4 54 -10 -8 -13 8 -13 21 -1 27 26 100 19 130 -14z m-1253 -77 c9 -11 17 -24
17 -28 0 -16 -32 -19 -47 -5 -13 14 -18 14 -37 2 -15 -11 -22 -27 -24 -61 -3
-51 -4 -50 32 -36 21 8 26 6 26 -5 0 -9 -11 -20 -25 -25 -29 -11 -30 -4 16
-242 30 -162 28 -196 -15 -237 -47 -44 -132 -36 -136 14 -4 41 1 55 31 90 l32
36 -32 145 c-54 249 -52 300 11 345 59 43 118 46 151 7z m-445 -248 c53 -33
86 -115 90 -226 4 -102 -4 -126 -65 -202 -41 -51 -84 -75 -134 -75 -52 0 -92
33 -128 104 -59 118 -51 229 20 293 21 20 41 36 43 36 2 0 1 -31 -2 -68 -12
-179 114 -367 165 -244 33 79 -8 262 -73 323 -48 45 -146 1 -211 -95 -37 -54
-39 -129 -5 -175 22 -30 22 -31 3 -41 -36 -19 -71 -12 -81 16 -30 78 9 176
107 271 100 96 200 126 271 83z"/>
<path d="M2012 3893 c-34 -13 -54 -121 -36 -191 9 -33 53 -41 76 -12 16 19 17
34 11 109 -7 93 -15 109 -51 94z"/>
<path d="M3544 3970 c-73 -29 -125 -180 -66 -188 33 -5 62 26 102 108 29 60
32 73 20 80 -18 12 -28 11 -56 0z"/>
<path d="M4375 3638 c-35 -12 -91 -62 -110 -98 -27 -51 22 -78 83 -46 31 16
64 49 61 62 -4 22 2 33 21 39 24 8 27 40 4 49 -19 7 -21 7 -59 -6z"/>
<path d="M2742 3539 c-62 -11 -193 -53 -231 -75 -14 -8 -17 -12 -6 -8 145 51
224 65 390 71 133 4 190 2 264 -11 111 -19 226 -63 293 -111 37 -27 58 -35 91
-35 23 0 70 -6 105 -14 34 -7 62 -9 62 -4 0 16 -54 29 -140 35 -65 5 -89 11
-105 26 -37 36 -185 99 -279 118 -99 20 -343 25 -444 8z"/>
<path d="M4080 3000 c6 -19 10 -56 10 -82 l0 -48 603 1 c331 1 575 5 542 9
-33 4 -300 8 -594 9 -530 1 -533 1 -528 21 6 25 -8 79 -28 105 -13 18 -14 17
-5 -15z"/>
<path d="M660 2909 c-70 -6 -130 -22 -130 -34 0 -3 143 -5 318 -4 329 1 359 9
112 29 -201 16 -218 16 -300 9z"/>
<path d="M3131 2816 c-44 -16 -48 -29 -14 -43 16 -7 45 -22 65 -35 35 -21 37
-22 55 -5 11 9 35 18 54 18 99 4 124 29 57 59 -50 23 -162 26 -217 6z"/>
<path d="M2480 2731 l-55 -6 80 -46 c113 -66 152 -80 218 -80 44 -1 68 5 102
25 55 33 63 45 40 62 -49 36 -255 60 -385 45z"/>
<path d="M3495 2701 c-45 -11 -95 -40 -95 -55 0 -17 49 -82 92 -124 l35 -33
76 49 c56 37 91 52 129 57 l53 8 -39 33 c-69 60 -167 85 -251 65z"/>
<path d="M622 2664 c-52 -36 -48 -78 13 -146 23 -25 35 -48 35 -67 0 -51 -51
-81 -80 -46 -17 20 -9 48 19 61 l23 12 -22 12 c-19 10 -27 9 -49 -7 -38 -29
-40 -74 -5 -102 61 -48 166 -11 180 64 7 39 -5 65 -57 122 -22 24 -39 49 -39
56 0 20 22 37 48 37 23 0 24 -3 19 -35 -7 -43 17 -49 35 -10 9 21 8 28 -7 45
-22 24 -81 27 -113 4z"/>
<path d="M4479 2673 c-8 -2 -23 -17 -32 -33 -21 -35 -11 -69 34 -116 52 -54
46 -134 -10 -134 -45 0 -53 56 -12 76 23 12 23 12 3 23 -37 20 -81 -12 -81
-59 0 -43 23 -63 82 -68 46 -4 57 -1 85 23 36 30 50 81 31 116 -6 13 -29 43
-50 66 -22 24 -39 47 -39 52 0 27 14 41 42 41 29 0 30 -1 25 -35 -7 -43 17
-49 35 -10 22 48 -38 79 -113 58z"/>
<path d="M4891 2651 c-7 -5 -24 -58 -37 -117 -25 -110 -44 -148 -65 -127 -8 8
-7 32 5 88 9 42 16 79 16 81 0 9 -49 3 -55 -6 -4 -6 -12 -6 -24 2 -13 8 -25 7
-46 -3 -72 -34 -104 -160 -50 -195 22 -14 27 -14 56 0 27 13 34 14 51 2 22
-16 78 -3 78 17 0 7 7 3 15 -7 17 -23 71 -24 93 -2 14 14 17 13 27 -1 18 -24
92 -19 121 8 l23 22 19 -23 c23 -29 73 -31 102 -5 28 25 25 36 -7 24 -22 -8
-30 -7 -40 7 -19 26 -17 31 22 44 41 13 65 44 65 81 0 32 -20 42 -66 33 -41
-8 -68 -42 -84 -106 -13 -50 -40 -72 -81 -66 -16 2 -25 11 -27 25 -2 16 4 24
32 33 64 21 89 90 42 111 -54 25 -117 -29 -131 -111 -7 -43 -40 -74 -51 -47
-4 11 25 169 42 230 6 19 -20 24 -45 8z"/>
<path d="M3900 2562 l0 -57 -47 -13 c-98 -25 -115 -30 -119 -34 -2 -3 5 -22
16 -43 27 -52 25 -79 -6 -104 -43 -34 -59 -34 -94 -1 -85 79 -259 61 -359 -39
-48 -48 -51 -66 -13 -76 15 -3 35 -14 45 -22 16 -15 13 -18 -43 -40 l-61 -25
-44 41 c-64 59 -79 60 -177 12 -53 -27 -108 -46 -152 -52 -67 -11 -150 -8
-163 5 -9 8 16 35 74 78 67 49 80 71 58 104 -8 13 -34 36 -56 51 -34 22 -51
26 -112 27 -87 0 -151 -26 -200 -84 l-32 -39 -25 24 c-14 13 -50 37 -80 53
-30 17 -56 38 -58 46 -4 20 49 69 99 92 24 10 39 24 39 34 0 41 -109 110 -172
110 -10 0 -54 -19 -98 -42 l-80 -43 -18 21 c-17 20 -75 64 -85 64 -7 0 87
-201 109 -236 12 -17 19 -21 25 -13 10 17 123 -13 210 -56 73 -37 191 -141
239 -210 l28 -41 103 9 c190 15 395 -7 438 -48 11 -11 9 -16 -18 -29 -17 -9
-31 -19 -31 -21 0 -7 145 60 206 95 82 47 183 78 285 86 l93 7 55 61 c85 92
99 104 166 135 55 26 63 34 74 70 20 69 25 138 11 171 -19 46 -30 36 -30 -28z"/>
<path d="M1775 2549 c-9 -84 8 -178 47 -259 42 -89 160 -204 310 -304 122 -81
159 -95 244 -96 65 0 88 -8 259 -88 137 -65 142 -66 225 -67 71 0 92 4 130 24
40 21 68 25 236 36 212 14 250 24 321 89 39 35 43 36 114 36 69 0 78 3 129 37
102 68 241 236 292 350 46 104 59 200 35 256 -11 25 -12 19 -13 -55 -1 -120
-28 -184 -114 -268 -222 -217 -286 -265 -394 -297 -28 -8 -105 -40 -171 -71
-104 -48 -130 -56 -195 -60 -62 -3 -89 1 -154 22 -89 29 -156 34 -156 12 0 -8
12 -16 27 -18 14 -2 28 -8 30 -14 9 -27 -189 -33 -282 -9 -72 19 -181 69 -261
121 -52 33 -66 37 -125 38 -61 1 -69 4 -113 40 -26 21 -68 69 -94 106 l-47 68
-45 -5 c-64 -6 -100 20 -139 99 -28 57 -71 232 -71 290 0 12 -4 29 -9 37 -6
10 -11 -7 -16 -50z"/>
<path d="M3067 2580 c-47 -8 -168 -68 -174 -86 -1 -5 20 -22 48 -39 50 -29
102 -79 111 -107 5 -14 130 46 221 107 l48 33 -32 36 c-17 20 -39 41 -48 45
-26 14 -122 20 -174 11z"/>
<path d="M776 2511 c-23 -99 -21 -130 6 -140 26 -10 53 -4 68 14 9 11 15 10
30 -5 20 -20 62 -17 81 6 10 12 13 12 23 -2 18 -24 82 -21 119 6 l30 23 -6
-22 c-4 -18 -1 -21 24 -21 30 0 39 19 55 117 7 46 25 59 54 41 24 -15 46 2 36
28 -5 13 -14 15 -41 11 -21 -3 -35 -2 -35 4 0 6 -12 9 -27 7 -25 -3 -28 -9
-40 -68 -15 -75 -47 -113 -92 -108 -24 3 -26 6 -24 52 2 70 52 132 61 77 2
-13 9 -18 18 -14 22 8 16 42 -10 54 -54 25 -119 -32 -132 -113 -7 -38 -36 -68
-48 -49 -4 5 1 41 9 81 19 93 20 92 -12 88 -26 -3 -29 -8 -43 -75 -16 -78 -44
-121 -56 -89 -6 15 5 88 22 149 4 13 -1 17 -25 17 -28 0 -30 -3 -45 -69z"/>
<path d="M1361 2567 c-50 -25 -88 -141 -58 -179 22 -28 93 -27 127 2 22 19 22
19 40 -2 21 -27 72 -28 100 -3 28 25 25 36 -7 24 -22 -8 -30 -7 -40 7 -14 20
-1 44 24 44 25 0 63 47 63 79 0 38 -32 49 -82 28 -36 -15 -68 -65 -68 -106 0
-46 -89 -85 -104 -45 -10 27 -7 32 29 44 59 20 87 87 46 110 -25 13 -40 13
-70 -3z"/>
<path d="M4093 2038 c0 -13 -3 -42 -7 -65 -5 -27 -4 -43 2 -43 13 0 22 35 22
84 l0 39 418 -5 c229 -3 482 -2 562 2 92 4 -63 7 -426 8 l-572 2 1 -22z"/>
<path d="M640 1913 c-19 -2 -54 -6 -77 -9 l-43 -5 0 -85 c0 -191 31 -376 88
-519 31 -77 45 -100 103 -158 110 -110 211 -147 404 -147 l103 0 4 -92 c5 -99
21 -144 73 -206 34 -41 91 -52 273 -52 132 0 149 -2 172 -21 359 -290 963
-422 1566 -343 298 39 526 121 673 244 32 26 91 65 132 86 l74 38 160 4 c88 1
173 8 188 14 45 17 77 84 87 180 5 46 12 97 15 114 l7 31 126 6 c101 4 141 10
195 30 133 49 228 141 277 269 57 149 75 248 86 490 l7 138 -537 -2 -538 -3
-13 -39 c-20 -56 -94 -126 -193 -181 -150 -84 -189 -112 -230 -168 -55 -73
-78 -86 -174 -96 -84 -8 -103 -15 -238 -89 -207 -112 -571 -135 -822 -52 -90
30 -242 102 -253 119 -3 6 -41 10 -83 10 -94 -1 -121 9 -169 62 -120 133 -136
146 -212 170 -85 27 -123 61 -171 151 -17 31 -42 71 -56 88 l-26 30 -471 -2
c-260 0 -488 -3 -507 -5z m918 -507 c22 -8 65 -35 95 -59 30 -25 61 -47 68
-50 12 -4 11 -7 -1 -16 -21 -15 -22 -14 -63 13 l-36 25 -84 -69 c-80 -65 -85
-68 -106 -54 -11 8 -21 19 -21 23 0 7 115 100 164 134 8 5 6 10 -4 17 -25 16
-59 11 -81 -11 -25 -25 -51 -11 -33 19 8 13 48 40 60 42 1 0 20 -6 42 -14z
m2780 -38 c17 -17 15 -64 -4 -94 -26 -39 -2 -54 30 -19 l26 28 0 -25 c0 -31
-34 -67 -70 -75 -17 -3 -32 -14 -35 -24 -9 -26 -48 -51 -69 -43 -9 3 -26 28
-37 55 -38 87 -62 53 -30 -42 20 -59 20 -63 3 -75 -9 -7 -24 -14 -33 -14 -9 0
-24 -9 -34 -20 -12 -13 -29 -20 -44 -18 -22 3 -28 13 -47 76 -22 70 -22 73 -4
82 31 17 36 12 55 -50 18 -60 38 -77 49 -42 4 10 -1 38 -9 62 -8 23 -15 50
-15 60 0 21 95 84 116 76 8 -3 24 -26 35 -51 11 -25 26 -45 34 -45 19 0 19 18
-1 65 -14 35 -14 42 1 81 22 57 56 79 83 52z m-2622 -163 c20 -14 42 -25 48
-25 5 0 -11 -22 -37 -48 -26 -26 -47 -53 -47 -60 0 -25 36 -10 81 34 41 40 49
45 68 35 11 -7 21 -16 21 -21 0 -5 10 -10 21 -12 30 -4 49 -35 30 -47 -18 -12
-41 -3 -41 15 0 28 -33 13 -77 -36 l-45 -51 -32 25 c-17 13 -40 25 -51 27 -11
2 -24 14 -30 26 -5 12 -22 24 -39 27 -40 8 -56 24 -56 55 0 48 73 96 127 85
12 -2 39 -15 59 -29z m303 -101 c2 -2 -3 -12 -12 -22 -13 -14 -14 -21 -5 -30
9 -9 7 -12 -8 -12 -20 0 -84 -68 -84 -89 0 -23 37 -9 65 25 33 39 95 56 134
35 49 -27 8 -81 -62 -81 -31 0 -38 -3 -35 -17 2 -11 14 -19 31 -21 36 -4 34
-19 -3 -27 -32 -7 -76 13 -86 40 -4 9 -15 12 -33 9 -18 -4 -35 1 -54 16 -31
24 -27 38 24 98 16 18 29 40 29 48 0 8 4 13 9 9 6 -3 15 4 21 15 8 16 17 19
38 14 15 -4 29 -8 31 -10z m1817 -55 c9 -15 -12 -33 -39 -34 -24 0 -25 -6 -13
-92 8 -51 7 -53 -20 -63 -19 -8 -29 -8 -34 0 -4 7 -12 5 -21 -6 -20 -24 -72
-44 -97 -37 -30 8 -46 61 -32 111 21 79 120 102 120 27 0 -7 -14 -26 -31 -43
-20 -19 -29 -37 -26 -46 9 -23 25 -20 56 12 26 26 28 31 21 82 -8 59 3 80 41
80 10 0 21 5 24 10 8 13 42 13 51 -1z m-286 -108 c28 -53 -4 -151 -56 -171
-34 -13 -40 -13 -58 6 -23 22 -23 149 0 158 39 15 44 8 44 -59 0 -66 10 -81
38 -53 18 18 16 108 -3 108 -16 0 -20 12 -8 23 12 13 32 7 43 -12z m-554 -42
c-6 -37 -5 -40 14 -34 11 3 29 3 41 0 18 -6 20 -13 17 -66 -1 -32 0 -59 5 -59
4 0 12 0 17 0 6 0 10 9 10 20 0 40 32 101 62 116 43 22 78 11 78 -25 0 -30
-21 -54 -58 -66 -34 -10 -20 -30 21 -29 26 1 34 -2 30 -13 -11 -29 -93 -47
-108 -23 -4 6 -15 4 -30 -6 -13 -8 -36 -14 -52 -12 -27 3 -28 4 -28 65 0 33
-3 64 -6 67 -12 12 -28 -20 -41 -79 -12 -54 -16 -60 -41 -63 -18 -2 -27 1 -27
11 0 12 -6 12 -44 0 -40 -13 -48 -13 -77 1 -22 11 -36 13 -49 6 -26 -14 -57
-12 -72 4 -9 10 -20 11 -38 4 -26 -10 -70 -3 -70 11 0 5 -20 6 -44 4 -37 -5
-46 -2 -55 16 -9 17 -6 32 18 86 29 63 42 74 70 56 11 -7 9 -17 -8 -56 -25
-57 -27 -78 -5 -73 9 2 27 30 41 64 21 55 26 61 48 56 30 -5 30 -5 6 -75 -12
-35 -16 -59 -10 -63 17 -10 38 17 56 72 15 49 19 54 46 54 23 0 28 -4 24 -17
-34 -119 -34 -129 -5 -118 9 4 18 19 21 34 8 38 51 87 83 95 38 10 66 -2 62
-27 -4 -28 -28 -35 -28 -7 0 17 -3 19 -18 11 -16 -9 -42 -69 -42 -99 0 -18 30
-22 63 -9 30 13 33 19 52 102 21 91 20 90 74 104 2 1 1 -17 -3 -40z m-561 15
c17 -3 31 -7 33 -8 1 -2 -21 -53 -50 -114 -51 -110 -52 -112 -85 -112 -39 0
-40 4 -13 48 23 38 24 44 8 40 -27 -5 -67 13 -73 32 -17 53 68 138 125 125 14
-3 39 -8 55 -11z"/>
</g>
</svg>
