<?xml version="1.0" encoding="iso-8859-1"?>
<!-- Generator: Adobe Illustrator 16.0.0, SVG Export Plug-In . SVG Version: 6.00 Build 0)  -->
<!DOCTYPE svg PUBLIC "-//W3C//DTD SVG 1.1//EN" "http://www.w3.org/Graphics/SVG/1.1/DTD/svg11.dtd">
<svg xmlns="http://www.w3.org/2000/svg" xmlns:xlink="http://www.w3.org/1999/xlink" version="1.1" id="Capa_1" x="0px" y="0px" width="512px" height="512px" viewBox="0 0 46.039 46.038" style="enable-background:new 0 0 46.039 46.038;" xml:space="preserve">
<g>
	<path d="M44.564,20.655c-0.556-0.15-1.115-0.049-1.568,0.229c-1.514-7.58-9.868-13.386-19.977-13.386   c-10.108,0-18.463,5.807-19.975,13.387c-0.454-0.279-1.016-0.382-1.57-0.229c-1.065,0.291-1.693,1.391-1.403,2.456l3.185,11.649   c0.612,2.241,2.66,3.778,4.984,3.778h29.559c2.323,0,4.372-1.537,4.984-3.778l3.185-11.664   C46.257,22.031,45.629,20.946,44.564,20.655z M29.997,12.253c1.143-0.832,4.64,2.031,5.473,3.172   c0.829,1.142,0.578,2.739-0.562,3.571c-1.143,0.83-2.741,0.578-3.572-0.563C30.504,17.292,28.856,13.083,29.997,12.253z    M23.019,12.383c1.412,0,2.558,4.373,2.558,5.785c0,1.411-1.146,2.556-2.558,2.556c-1.41,0-2.555-1.145-2.555-2.556   C20.464,16.756,21.609,12.383,23.019,12.383z M10.571,15.425c0.831-1.141,4.329-4.004,5.471-3.172   c1.142,0.83-0.508,5.039-1.337,6.18c-0.831,1.142-2.43,1.394-3.57,0.563C9.992,18.164,9.741,16.566,10.571,15.425z M38.923,33.708   c-0.137,0.507-0.6,0.832-1.125,0.832H8.24c-0.524,0-0.987-0.325-1.125-0.831l-1.446-5.287c0.646,0.297,1.357,0.482,2.115,0.482   c2.805,0,5.079-2.271,5.079-5.075c0,2.804,2.273,5.08,5.076,5.08c2.806,0,5.08-2.272,5.08-5.077c0,2.805,2.273,5.079,5.078,5.079   c2.806,0,5.077-2.274,5.077-5.079c0,2.805,2.271,5.079,5.078,5.079c0.758,0,1.47-0.179,2.115-0.476L38.923,33.708z" fill="#FFFFFF"/>
</g>
<g>
</g>
<g>
</g>
<g>
</g>
<g>
</g>
<g>
</g>
<g>
</g>
<g>
</g>
<g>
</g>
<g>
</g>
<g>
</g>
<g>
</g>
<g>
</g>
<g>
</g>
<g>
</g>
<g>
</g>
</svg>
